<svg xmlns="http://www.w3.org/2000/svg" viewBox="0 0 800 600" width="100%" height="100%" aria-label="Imagen no disponible / Image not available">
  <defs>
    <linearGradient id="bgGrad" x1="0%" y1="0%" x2="100%" y2="100%">
      <stop offset="0%" stop-color="#ffffff" />
      <stop offset="100%" stop-color="#f4f4f5" />
    </linearGradient>
  </defs>
  <rect width="800" height="600" rx="24" fill="url(#bgGrad)" stroke="#e4e4e7" stroke-width="2"/>
  <circle cx="400" cy="260" r="56" fill="#18181b" />
  <path d="M372 240C372 233.373 377.373 228 384 228H416C422.627 228 428 233.373 428 240V280C428 286.627 422.627 292 416 292H384C377.373 292 372 286.627 372 280V240Z" fill="none" stroke="#ffffff" stroke-width="4" stroke-linejoin="round"/>
  <circle cx="388" cy="248" r="4" fill="#ffffff"/>
  <path d="M374 282L388 266L400 278L410 268L426 282" fill="none" stroke="#ffffff" stroke-width="3" stroke-linecap="round" stroke-linejoin="round"/>
  <text x="400" y="372" text-anchor="middle" font-family="Plus Jakarta Sans, sans-serif" font-size="22" font-weight="700" fill="#18181b">
    Imagen no disponible
  </text>
  <text x="400" y="404" text-anchor="middle" font-family="Plus Jakarta Sans, sans-serif" font-size="16" font-weight="400" fill="#71717a">
    Image not available
  </text>
  <text x="400" y="450" text-anchor="middle" font-family="Plus Jakarta Sans, sans-serif" font-size="13" font-weight="600" fill="#18181b" letter-spacing="2">
    SASH STORE
  </text>
</svg>
